<svg width="92" height="19" viewBox="0 0 92 19" fill="none" xmlns="http://www.w3.org/2000/svg">
<rect x="5.00085" y="3.5" width="2" height="12" rx="1" fill="#767575"/>
<rect y="10.5" width="2" height="12" rx="1" transform="rotate(-90 0 10.5)" fill="#767575"/>
<path d="M24.3317 15H22.468L26.6555 3.36364H28.6839L32.8714 15H31.0078L27.718 5.47727H27.6271L24.3317 15ZM24.6442 10.4432H30.6896V11.9205H24.6442V10.4432ZM37.5419 15.1705C36.8374 15.1705 36.2086 14.9905 35.6555 14.6307C35.1063 14.267 34.6745 13.75 34.3601 13.0795C34.0495 12.4053 33.8942 11.5966 33.8942 10.6534C33.8942 9.71023 34.0514 8.90341 34.3658 8.23295C34.6839 7.5625 35.1196 7.04924 35.6726 6.69318C36.2256 6.33712 36.8525 6.15909 37.5533 6.15909C38.0949 6.15909 38.5305 6.25 38.8601 6.43182C39.1934 6.60985 39.451 6.81818 39.6328 7.05682C39.8184 7.29545 39.9624 7.50568 40.0646 7.6875H40.1669V3.36364H41.8658V15H40.2067V13.642H40.0646C39.9624 13.8277 39.8146 14.0398 39.6214 14.2784C39.4321 14.517 39.1707 14.7254 38.8374 14.9034C38.504 15.0814 38.0722 15.1705 37.5419 15.1705ZM37.9169 13.7216C38.4055 13.7216 38.8184 13.5928 39.1555 13.3352C39.4964 13.0739 39.754 12.7121 39.9283 12.25C40.1063 11.7879 40.1953 11.25 40.1953 10.6364C40.1953 10.0303 40.1082 9.5 39.9339 9.04545C39.7597 8.59091 39.504 8.23674 39.1669 7.98295C38.8298 7.72917 38.4131 7.60227 37.9169 7.60227C37.4055 7.60227 36.9794 7.73485 36.6385 8C36.2976 8.26515 36.04 8.62689 35.8658 9.08523C35.6953 9.54356 35.6101 10.0606 35.6101 10.6364C35.6101 11.2197 35.6972 11.7443 35.8714 12.2102C36.0457 12.6761 36.3033 13.0455 36.6442 13.3182C36.9889 13.5871 37.4131 13.7216 37.9169 13.7216ZM47.5575 15.1705C46.853 15.1705 46.2242 14.9905 45.6712 14.6307C45.1219 14.267 44.6901 13.75 44.3757 13.0795C44.0651 12.4053 43.9098 11.5966 43.9098 10.6534C43.9098 9.71023 44.067 8.90341 44.3814 8.23295C44.6996 7.5625 45.1352 7.04924 45.6882 6.69318C46.2412 6.33712 46.8681 6.15909 47.5689 6.15909C48.1106 6.15909 48.5462 6.25 48.8757 6.43182C49.209 6.60985 49.4666 6.81818 49.6484 7.05682C49.834 7.29545 49.978 7.50568 50.0803 7.6875H50.1825V3.36364H51.8814V15H50.2223V13.642H50.0803C49.978 13.8277 49.8303 14.0398 49.6371 14.2784C49.4477 14.517 49.1863 14.7254 48.853 14.9034C48.5196 15.0814 48.0878 15.1705 47.5575 15.1705ZM47.9325 13.7216C48.4212 13.7216 48.834 13.5928 49.1712 13.3352C49.5121 13.0739 49.7696 12.7121 49.9439 12.25C50.1219 11.7879 50.2109 11.25 50.2109 10.6364C50.2109 10.0303 50.1238 9.5 49.9496 9.04545C49.7753 8.59091 49.5196 8.23674 49.1825 7.98295C48.8454 7.72917 48.4287 7.60227 47.9325 7.60227C47.4212 7.60227 46.995 7.73485 46.6541 8C46.3132 8.26515 46.0556 8.62689 45.8814 9.08523C45.7109 9.54356 45.6257 10.0606 45.6257 10.6364C45.6257 11.2197 45.7128 11.7443 45.8871 12.2102C46.0613 12.6761 46.3189 13.0455 46.6598 13.3182C47.0045 13.5871 47.4287 13.7216 47.9325 13.7216ZM68.0689 3.36364V15H66.4553L60.5405 6.46591H60.4325V15H58.6768V3.36364H60.3018L66.2223 11.9091H66.3303V3.36364H68.0689ZM74.255 15.1761C73.3951 15.1761 72.6546 14.9924 72.0334 14.625C71.416 14.2538 70.9387 13.733 70.6016 13.0625C70.2682 12.3883 70.1016 11.5985 70.1016 10.6932C70.1016 9.79924 70.2682 9.01136 70.6016 8.32955C70.9387 7.64773 71.4084 7.11553 72.0107 6.73295C72.6167 6.35038 73.325 6.15909 74.1357 6.15909C74.6281 6.15909 75.1054 6.24053 75.5675 6.40341C76.0296 6.56629 76.4444 6.82197 76.8118 7.17045C77.1792 7.51894 77.469 7.97159 77.6811 8.52841C77.8932 9.08144 77.9993 9.75379 77.9993 10.5455V11.1477H71.0618V9.875H76.3345C76.3345 9.42803 76.2436 9.0322 76.0618 8.6875C75.88 8.33902 75.6243 8.06439 75.2947 7.86364C74.969 7.66288 74.5864 7.5625 74.147 7.5625C73.6697 7.5625 73.2531 7.67992 72.897 7.91477C72.5447 8.14583 72.272 8.44886 72.0788 8.82386C71.8894 9.19508 71.7947 9.59848 71.7947 10.0341V11.0284C71.7947 11.6117 71.897 12.108 72.1016 12.517C72.3099 12.9261 72.5997 13.2386 72.9709 13.4545C73.3421 13.6667 73.7758 13.7727 74.272 13.7727C74.594 13.7727 74.8875 13.7273 75.1527 13.6364C75.4179 13.5417 75.647 13.4015 75.8402 13.2159C76.0334 13.0303 76.1811 12.8011 76.2834 12.5284L77.8913 12.8182C77.7625 13.2917 77.5315 13.7064 77.1982 14.0625C76.8686 14.4148 76.4538 14.6894 75.9538 14.8864C75.4576 15.0795 74.8913 15.1761 74.255 15.1761ZM81.7607 15L79.1925 6.27273H80.9482L82.6584 12.6818H82.7436L84.4595 6.27273H86.2152L87.9197 12.6534H88.005L89.7038 6.27273H91.4595L88.897 15H87.1641L85.3913 8.69886H85.2607L83.4879 15H81.7607Z" fill="#767575"/>
</svg>
