<svg width="102" height="21" viewBox="0 0 102 21" fill="none" xmlns="http://www.w3.org/2000/svg">
<path d="M2.33324 8.33326C2.33338 7.7012 2.49689 7.07991 2.80792 6.52968C3.11895 5.97945 3.56694 5.51896 4.1084 5.1929C4.64987 4.86685 5.26642 4.6863 5.89824 4.66877C6.53005 4.65124 7.15567 4.79734 7.71437 5.09287C8.27308 5.38841 8.7459 5.82336 9.08696 6.3555C9.42802 6.88764 9.62572 7.49891 9.6609 8.12999C9.69607 8.76107 9.56751 9.39052 9.2877 9.95727C9.00788 10.524 8.58632 11.0088 8.06391 11.3646C9.18891 11.7772 10.1647 12.5171 10.8657 13.4889C11.5666 14.4608 11.9607 15.6202 11.9972 16.8179C11.9957 16.9471 11.9443 17.0706 11.8538 17.1627C11.7633 17.2549 11.6407 17.3085 11.5116 17.3124C11.3825 17.3162 11.2569 17.2701 11.1611 17.1835C11.0652 17.097 11.0065 16.9767 10.9972 16.8479C10.9575 15.5489 10.4136 14.3164 9.48069 13.4115C8.54778 12.5067 7.29921 12.0007 5.99958 12.0007C4.69994 12.0007 3.45137 12.5067 2.51846 13.4115C1.58555 14.3164 1.04161 15.5489 1.00191 16.8479C0.995236 16.9785 0.937696 17.1012 0.841617 17.1899C0.745538 17.2785 0.618563 17.326 0.487893 17.3222C0.357224 17.3183 0.233252 17.2635 0.142539 17.1694C0.0518249 17.0752 0.00158354 16.9493 0.00257796 16.8186C0.0389455 15.6207 0.432983 14.4612 1.13397 13.4892C1.83495 12.5172 2.81081 11.7773 3.93591 11.3646C3.44196 11.0282 3.03773 10.5761 2.7584 10.0478C2.47907 9.51948 2.33312 8.93089 2.33324 8.33326ZM5.99991 5.66659C5.29267 5.66659 4.61439 5.94755 4.11429 6.44764C3.6142 6.94774 3.33324 7.62602 3.33324 8.33326C3.33324 9.0405 3.6142 9.71878 4.11429 10.2189C4.61439 10.719 5.29267 10.9999 5.99991 10.9999C6.70715 10.9999 7.38543 10.719 7.88553 10.2189C8.38563 9.71878 8.66658 9.0405 8.66658 8.33326C8.66658 7.62602 8.38563 6.94774 7.88553 6.44764C7.38543 5.94755 6.70715 5.66659 5.99991 5.66659ZM11.5266 8.33326C11.4284 8.33326 11.3319 8.33993 11.2372 8.35326C11.1712 8.3651 11.1033 8.3635 11.0379 8.34856C10.9724 8.33362 10.9106 8.30565 10.8562 8.26632C10.8018 8.22698 10.7559 8.17709 10.7211 8.11962C10.6864 8.06215 10.6636 7.99827 10.6541 7.9318C10.6446 7.86533 10.6486 7.79763 10.6659 7.73273C10.6831 7.66783 10.7132 7.60708 10.7545 7.55408C10.7957 7.50108 10.8472 7.45693 10.9058 7.42426C10.9645 7.39159 11.0291 7.37107 11.0959 7.36393C11.759 7.26806 12.4351 7.39539 13.0178 7.72588C13.6006 8.05636 14.0569 8.57124 14.315 9.18948C14.5731 9.80772 14.6182 10.4942 14.4434 11.141C14.2686 11.7877 13.8837 12.3579 13.3492 12.7619C14.1348 13.1137 14.8019 13.6853 15.2698 14.4077C15.7378 15.1301 15.9867 15.9725 15.9866 16.8333C15.9866 16.9659 15.9339 17.093 15.8401 17.1868C15.7464 17.2806 15.6192 17.3333 15.4866 17.3333C15.354 17.3333 15.2268 17.2806 15.133 17.1868C15.0393 17.093 14.9866 16.9659 14.9866 16.8333C14.9868 16.0893 14.7472 15.365 14.3034 14.768C13.8596 14.1709 13.2351 13.7328 12.5226 13.5186L12.1666 13.4119V12.2946L12.4399 12.1553C12.8451 11.95 13.1693 11.6142 13.3601 11.2021C13.551 10.7899 13.5974 10.3255 13.4918 9.88377C13.3862 9.44202 13.1349 9.04874 12.7783 8.76741C12.4217 8.48609 11.9808 8.33314 11.5266 8.33326Z" fill="#707070"/>
<path d="M27.916 13.012H23.842L23.142 15H21.476L24.962 5.256H26.81L30.296 15H28.616L27.916 13.012ZM27.468 11.71L25.886 7.188L24.29 11.71H27.468ZM31.2797 11.108C31.2797 10.3333 31.4384 9.64733 31.7557 9.05C32.0824 8.45267 32.5211 7.99067 33.0717 7.664C33.6317 7.328 34.2524 7.16 34.9337 7.16C35.4377 7.16 35.9324 7.272 36.4177 7.496C36.9124 7.71067 37.3044 8 37.5937 8.364V4.64H39.2037V15H37.5937V13.838C37.3324 14.2113 36.9684 14.5193 36.5017 14.762C36.0444 15.0047 35.5171 15.126 34.9197 15.126C34.2477 15.126 33.6317 14.958 33.0717 14.622C32.5211 14.2767 32.0824 13.8007 31.7557 13.194C31.4384 12.578 31.2797 11.8827 31.2797 11.108ZM37.5937 11.136C37.5937 10.604 37.4817 10.142 37.2577 9.75C37.0431 9.358 36.7584 9.05933 36.4037 8.854C36.0491 8.64867 35.6664 8.546 35.2557 8.546C34.8451 8.546 34.4624 8.64867 34.1077 8.854C33.7531 9.05 33.4637 9.344 33.2397 9.736C33.0251 10.1187 32.9177 10.576 32.9177 11.108C32.9177 11.64 33.0251 12.1067 33.2397 12.508C33.4637 12.9093 33.7531 13.2173 34.1077 13.432C34.4717 13.6373 34.8544 13.74 35.2557 13.74C35.6664 13.74 36.0491 13.6373 36.4037 13.432C36.7584 13.2267 37.0431 12.928 37.2577 12.536C37.4817 12.1347 37.5937 11.668 37.5937 11.136ZM40.768 11.108C40.768 10.3333 40.9267 9.64733 41.244 9.05C41.5707 8.45267 42.0093 7.99067 42.56 7.664C43.12 7.328 43.7407 7.16 44.422 7.16C44.926 7.16 45.4207 7.272 45.906 7.496C46.4007 7.71067 46.7927 8 47.082 8.364V4.64H48.692V15H47.082V13.838C46.8207 14.2113 46.4567 14.5193 45.99 14.762C45.5327 15.0047 45.0053 15.126 44.408 15.126C43.736 15.126 43.12 14.958 42.56 14.622C42.0093 14.2767 41.5707 13.8007 41.244 13.194C40.9267 12.578 40.768 11.8827 40.768 11.108ZM47.082 11.136C47.082 10.604 46.97 10.142 46.746 9.75C46.5313 9.358 46.2467 9.05933 45.892 8.854C45.5373 8.64867 45.1547 8.546 44.744 8.546C44.3333 8.546 43.9507 8.64867 43.596 8.854C43.2413 9.05 42.952 9.344 42.728 9.736C42.5133 10.1187 42.406 10.576 42.406 11.108C42.406 11.64 42.5133 12.1067 42.728 12.508C42.952 12.9093 43.2413 13.2173 43.596 13.432C43.96 13.6373 44.3427 13.74 44.744 13.74C45.1547 13.74 45.5373 13.6373 45.892 13.432C46.2467 13.2267 46.5313 12.928 46.746 12.536C46.97 12.1347 47.082 11.668 47.082 11.136ZM61.229 8.168C61.229 8.66267 61.1123 9.12933 60.879 9.568C60.6457 10.0067 60.2723 10.366 59.759 10.646C59.2457 10.9167 58.5877 11.052 57.785 11.052H56.021V15H54.425V5.27H57.785C58.5317 5.27 59.1617 5.40067 59.675 5.662C60.1977 5.914 60.585 6.25933 60.837 6.698C61.0983 7.13667 61.229 7.62667 61.229 8.168ZM57.785 9.75C58.3917 9.75 58.8443 9.61467 59.143 9.344C59.4417 9.064 59.591 8.672 59.591 8.168C59.591 7.104 58.989 6.572 57.785 6.572H56.021V9.75H57.785ZM69.8212 10.954C69.8212 11.2433 69.8025 11.5047 69.7652 11.738H63.8712C63.9178 12.354 64.1465 12.8487 64.5572 13.222C64.9678 13.5953 65.4718 13.782 66.0692 13.782C66.9278 13.782 67.5345 13.4227 67.8892 12.704H69.6112C69.3778 13.4133 68.9532 13.9967 68.3372 14.454C67.7305 14.902 66.9745 15.126 66.0692 15.126C65.3318 15.126 64.6692 14.9627 64.0812 14.636C63.5025 14.3 63.0452 13.8333 62.7092 13.236C62.3825 12.6293 62.2192 11.9293 62.2192 11.136C62.2192 10.3427 62.3778 9.64733 62.6952 9.05C63.0218 8.44333 63.4745 7.97667 64.0532 7.65C64.6412 7.32333 65.3132 7.16 66.0692 7.16C66.7972 7.16 67.4458 7.31867 68.0152 7.636C68.5845 7.95333 69.0278 8.40133 69.3452 8.98C69.6625 9.54933 69.8212 10.2073 69.8212 10.954ZM68.1552 10.45C68.1458 9.862 67.9358 9.39067 67.5252 9.036C67.1145 8.68133 66.6058 8.504 65.9992 8.504C65.4485 8.504 64.9772 8.68133 64.5852 9.036C64.1932 9.38133 63.9598 9.85267 63.8852 10.45H68.1552ZM74.7378 15.126C74.0098 15.126 73.3518 14.9627 72.7638 14.636C72.1758 14.3 71.7138 13.8333 71.3778 13.236C71.0418 12.6293 70.8738 11.9293 70.8738 11.136C70.8738 10.352 71.0465 9.65667 71.3918 9.05C71.7371 8.44333 72.2085 7.97667 72.8058 7.65C73.4031 7.32333 74.0705 7.16 74.8078 7.16C75.5451 7.16 76.2125 7.32333 76.8098 7.65C77.4071 7.97667 77.8785 8.44333 78.2238 9.05C78.5691 9.65667 78.7418 10.352 78.7418 11.136C78.7418 11.92 78.5645 12.6153 78.2098 13.222C77.8551 13.8287 77.3698 14.3 76.7538 14.636C76.1471 14.9627 75.4751 15.126 74.7378 15.126ZM74.7378 13.74C75.1485 13.74 75.5311 13.642 75.8858 13.446C76.2498 13.25 76.5438 12.956 76.7678 12.564C76.9918 12.172 77.1038 11.696 77.1038 11.136C77.1038 10.576 76.9965 10.1047 76.7818 9.722C76.5671 9.33 76.2825 9.036 75.9278 8.84C75.5731 8.644 75.1905 8.546 74.7798 8.546C74.3691 8.546 73.9865 8.644 73.6318 8.84C73.2865 9.036 73.0111 9.33 72.8058 9.722C72.6005 10.1047 72.4978 10.576 72.4978 11.136C72.4978 11.9667 72.7078 12.6107 73.1278 13.068C73.5571 13.516 74.0938 13.74 74.7378 13.74ZM81.9155 8.42C82.1862 8.06533 82.5549 7.76667 83.0215 7.524C83.4882 7.28133 84.0155 7.16 84.6035 7.16C85.2755 7.16 85.8869 7.328 86.4375 7.664C86.9975 7.99067 87.4362 8.45267 87.7535 9.05C88.0709 9.64733 88.2295 10.3333 88.2295 11.108C88.2295 11.8827 88.0709 12.578 87.7535 13.194C87.4362 13.8007 86.9975 14.2767 86.4375 14.622C85.8869 14.958 85.2755 15.126 84.6035 15.126C84.0155 15.126 83.4929 15.0093 83.0355 14.776C82.5782 14.5333 82.2049 14.2347 81.9155 13.88V18.668H80.3195V7.286H81.9155V8.42ZM86.6055 11.108C86.6055 10.576 86.4935 10.1187 86.2695 9.736C86.0549 9.344 85.7655 9.05 85.4015 8.854C85.0469 8.64867 84.6642 8.546 84.2535 8.546C83.8522 8.546 83.4695 8.64867 83.1055 8.854C82.7509 9.05933 82.4615 9.358 82.2375 9.75C82.0229 10.142 81.9155 10.604 81.9155 11.136C81.9155 11.668 82.0229 12.1347 82.2375 12.536C82.4615 12.928 82.7509 13.2267 83.1055 13.432C83.4695 13.6373 83.8522 13.74 84.2535 13.74C84.6642 13.74 85.0469 13.6373 85.4015 13.432C85.7655 13.2173 86.0549 12.9093 86.2695 12.508C86.4935 12.1067 86.6055 11.64 86.6055 11.108ZM91.4038 4.64V15H89.8078V4.64H91.4038ZM100.569 10.954C100.569 11.2433 100.551 11.5047 100.513 11.738H94.6192C94.6659 12.354 94.8946 12.8487 95.3052 13.222C95.7159 13.5953 96.2199 13.782 96.8172 13.782C97.6759 13.782 98.2826 13.4227 98.6372 12.704H100.359C100.126 13.4133 99.7012 13.9967 99.0852 14.454C98.4786 14.902 97.7226 15.126 96.8172 15.126C96.0799 15.126 95.4172 14.9627 94.8292 14.636C94.2506 14.3 93.7932 13.8333 93.4572 13.236C93.1306 12.6293 92.9672 11.9293 92.9672 11.136C92.9672 10.3427 93.1259 9.64733 93.4432 9.05C93.7699 8.44333 94.2226 7.97667 94.8012 7.65C95.3892 7.32333 96.0612 7.16 96.8172 7.16C97.5452 7.16 98.1939 7.31867 98.7632 7.636C99.3326 7.95333 99.7759 8.40133 100.093 8.98C100.411 9.54933 100.569 10.2073 100.569 10.954ZM98.9032 10.45C98.8939 9.862 98.6839 9.39067 98.2732 9.036C97.8626 8.68133 97.3539 8.504 96.7472 8.504C96.1966 8.504 95.7252 8.68133 95.3332 9.036C94.9412 9.38133 94.7079 9.85267 94.6332 10.45H98.9032Z" fill="#707070"/>
</svg>
