<svg width="71" height="12" viewBox="0 0 71 12" fill="none" xmlns="http://www.w3.org/2000/svg">
<path d="M19.04 3.44V9H18.128V6.568H15.512V9H14.6V3.44H15.512V5.824H18.128V3.44H19.04ZM21.1526 3.44V9H20.2406V3.44H21.1526ZM26.374 5.04C26.23 4.76267 26.03 4.55467 25.774 4.416C25.518 4.272 25.222 4.2 24.886 4.2C24.518 4.2 24.19 4.28267 23.902 4.448C23.614 4.61333 23.3873 4.848 23.222 5.152C23.062 5.456 22.982 5.808 22.982 6.208C22.982 6.608 23.062 6.96267 23.222 7.272C23.3873 7.576 23.614 7.81067 23.902 7.976C24.19 8.14133 24.518 8.224 24.886 8.224C25.382 8.224 25.7847 8.08533 26.094 7.808C26.4033 7.53067 26.5927 7.15467 26.662 6.68H24.574V5.952H27.638V6.664C27.5793 7.096 27.4247 7.49333 27.174 7.856C26.9287 8.21867 26.606 8.50933 26.206 8.728C25.8113 8.94133 25.3713 9.048 24.886 9.048C24.3633 9.048 23.886 8.928 23.454 8.688C23.022 8.44267 22.678 8.104 22.422 7.672C22.1713 7.24 22.046 6.752 22.046 6.208C22.046 5.664 22.1713 5.176 22.422 4.744C22.678 4.312 23.022 3.976 23.454 3.736C23.8913 3.49067 24.3687 3.368 24.886 3.368C25.478 3.368 26.0033 3.51467 26.462 3.808C26.926 4.096 27.262 4.50667 27.47 5.04H26.374ZM32.9775 3.44V9H32.0655V6.568H29.4495V9H28.5375V3.44H29.4495V5.824H32.0655V3.44H32.9775ZM40.1443 5.096C40.1443 5.37867 40.0776 5.64533 39.9443 5.896C39.8109 6.14667 39.5976 6.352 39.3043 6.512C39.0109 6.66667 38.6349 6.744 38.1763 6.744H37.1683V9H36.2563V3.44H38.1763C38.6029 3.44 38.9629 3.51467 39.2563 3.664C39.5549 3.808 39.7763 4.00533 39.9203 4.256C40.0696 4.50667 40.1443 4.78667 40.1443 5.096ZM38.1763 6C38.5229 6 38.7816 5.92267 38.9523 5.768C39.1229 5.608 39.2083 5.384 39.2083 5.096C39.2083 4.488 38.8643 4.184 38.1763 4.184H37.1683V6H38.1763ZM43.9021 9L42.6221 6.776H41.9261V9H41.0141V3.44H42.9341C43.3607 3.44 43.7207 3.51467 44.0141 3.664C44.3127 3.81333 44.5341 4.01333 44.6781 4.264C44.8274 4.51467 44.9021 4.79467 44.9021 5.104C44.9021 5.46667 44.7954 5.79733 44.5821 6.096C44.3741 6.38933 44.0514 6.58933 43.6141 6.696L44.9901 9H43.9021ZM41.9261 6.048H42.9341C43.2754 6.048 43.5314 5.96267 43.7021 5.792C43.8781 5.62133 43.9661 5.392 43.9661 5.104C43.9661 4.816 43.8807 4.592 43.7101 4.432C43.5394 4.26667 43.2807 4.184 42.9341 4.184H41.9261V6.048ZM46.9808 3.44V9H46.0688V3.44H46.9808ZM50.7141 9.056C50.1968 9.056 49.7195 8.936 49.2821 8.696C48.8501 8.45067 48.5061 8.112 48.2501 7.68C47.9995 7.24267 47.8741 6.752 47.8741 6.208C47.8741 5.664 47.9995 5.176 48.2501 4.744C48.5061 4.312 48.8501 3.976 49.2821 3.736C49.7195 3.49067 50.1968 3.368 50.7141 3.368C51.2368 3.368 51.7141 3.49067 52.1461 3.736C52.5835 3.976 52.9275 4.312 53.1781 4.744C53.4288 5.176 53.5541 5.664 53.5541 6.208C53.5541 6.752 53.4288 7.24267 53.1781 7.68C52.9275 8.112 52.5835 8.45067 52.1461 8.696C51.7141 8.936 51.2368 9.056 50.7141 9.056ZM50.7141 8.264C51.0821 8.264 51.4101 8.18133 51.6981 8.016C51.9861 7.84533 52.2101 7.60533 52.3701 7.296C52.5355 6.98133 52.6181 6.61867 52.6181 6.208C52.6181 5.79733 52.5355 5.43733 52.3701 5.128C52.2101 4.81867 51.9861 4.58133 51.6981 4.416C51.4101 4.25067 51.0821 4.168 50.7141 4.168C50.3461 4.168 50.0181 4.25067 49.7301 4.416C49.4421 4.58133 49.2155 4.81867 49.0501 5.128C48.8901 5.43733 48.8101 5.79733 48.8101 6.208C48.8101 6.61867 48.8901 6.98133 49.0501 7.296C49.2155 7.60533 49.4421 7.84533 49.7301 8.016C50.0181 8.18133 50.3461 8.264 50.7141 8.264ZM57.3396 9L56.0596 6.776H55.3636V9H54.4516V3.44H56.3716C56.7982 3.44 57.1582 3.51467 57.4516 3.664C57.7502 3.81333 57.9716 4.01333 58.1156 4.264C58.2649 4.51467 58.3396 4.79467 58.3396 5.104C58.3396 5.46667 58.2329 5.79733 58.0196 6.096C57.8116 6.38933 57.4889 6.58933 57.0516 6.696L58.4276 9H57.3396ZM55.3636 6.048H56.3716C56.7129 6.048 56.9689 5.96267 57.1396 5.792C57.3156 5.62133 57.4036 5.392 57.4036 5.104C57.4036 4.816 57.3182 4.592 57.1476 4.432C56.9769 4.26667 56.7182 4.184 56.3716 4.184H55.3636V6.048ZM60.4183 3.44V9H59.5063V3.44H60.4183ZM65.2076 3.44V4.184H63.7276V9H62.8156V4.184H61.3276V3.44H65.2076ZM70.2513 3.44L68.4113 6.984V9H67.4993V6.984L65.6513 3.44H66.6673L67.9553 6.168L69.2433 3.44H70.2513Z" fill="#707070"/>
<circle cx="4.5" cy="5.5" r="4.5" fill="#FF2473"/>
</svg>
