<svg width="69" height="12" viewBox="0 0 69 12" fill="none" xmlns="http://www.w3.org/2000/svg">
<path d="M15.512 8.264H17.392V9H14.6V3.44H15.512V8.264ZM20.6907 9.056C20.1734 9.056 19.696 8.936 19.2587 8.696C18.8267 8.45067 18.4827 8.112 18.2267 7.68C17.976 7.24267 17.8507 6.752 17.8507 6.208C17.8507 5.664 17.976 5.176 18.2267 4.744C18.4827 4.312 18.8267 3.976 19.2587 3.736C19.696 3.49067 20.1734 3.368 20.6907 3.368C21.2134 3.368 21.6907 3.49067 22.1227 3.736C22.56 3.976 22.904 4.312 23.1547 4.744C23.4054 5.176 23.5307 5.664 23.5307 6.208C23.5307 6.752 23.4054 7.24267 23.1547 7.68C22.904 8.112 22.56 8.45067 22.1227 8.696C21.6907 8.936 21.2134 9.056 20.6907 9.056ZM20.6907 8.264C21.0587 8.264 21.3867 8.18133 21.6747 8.016C21.9627 7.84533 22.1867 7.60533 22.3467 7.296C22.512 6.98133 22.5947 6.61867 22.5947 6.208C22.5947 5.79733 22.512 5.43733 22.3467 5.128C22.1867 4.81867 21.9627 4.58133 21.6747 4.416C21.3867 4.25067 21.0587 4.168 20.6907 4.168C20.3227 4.168 19.9947 4.25067 19.7067 4.416C19.4187 4.58133 19.192 4.81867 19.0267 5.128C18.8667 5.43733 18.7867 5.79733 18.7867 6.208C18.7867 6.61867 18.8667 6.98133 19.0267 7.296C19.192 7.60533 19.4187 7.84533 19.7067 8.016C19.9947 8.18133 20.3227 8.264 20.6907 8.264ZM31.6681 3.44L30.0201 9H28.9881L27.8201 4.792L26.5801 9L25.5561 9.008L23.9801 3.44H24.9481L26.1001 7.968L27.3481 3.44H28.3721L29.5321 7.944L30.6921 3.44H31.6681ZM38.3864 5.096C38.3864 5.37867 38.3198 5.64533 38.1864 5.896C38.0531 6.14667 37.8398 6.352 37.5464 6.512C37.2531 6.66667 36.8771 6.744 36.4184 6.744H35.4104V9H34.4984V3.44H36.4184C36.8451 3.44 37.2051 3.51467 37.4984 3.664C37.7971 3.808 38.0184 4.00533 38.1624 4.256C38.3118 4.50667 38.3864 4.78667 38.3864 5.096ZM36.4184 6C36.7651 6 37.0238 5.92267 37.1944 5.768C37.3651 5.608 37.4504 5.384 37.4504 5.096C37.4504 4.488 37.1064 4.184 36.4184 4.184H35.4104V6H36.4184ZM42.1443 9L40.8643 6.776H40.1683V9H39.2563V3.44H41.1763C41.6029 3.44 41.9629 3.51467 42.2563 3.664C42.5549 3.81333 42.7763 4.01333 42.9203 4.264C43.0696 4.51467 43.1443 4.79467 43.1443 5.104C43.1443 5.46667 43.0376 5.79733 42.8243 6.096C42.6163 6.38933 42.2936 6.58933 41.8563 6.696L43.2323 9H42.1443ZM40.1683 6.048H41.1763C41.5176 6.048 41.7736 5.96267 41.9443 5.792C42.1203 5.62133 42.2083 5.392 42.2083 5.104C42.2083 4.816 42.1229 4.592 41.9523 4.432C41.7816 4.26667 41.5229 4.184 41.1763 4.184H40.1683V6.048ZM45.2229 3.44V9H44.3109V3.44H45.2229ZM48.9563 9.056C48.439 9.056 47.9616 8.936 47.5243 8.696C47.0923 8.45067 46.7483 8.112 46.4923 7.68C46.2416 7.24267 46.1163 6.752 46.1163 6.208C46.1163 5.664 46.2416 5.176 46.4923 4.744C46.7483 4.312 47.0923 3.976 47.5243 3.736C47.9616 3.49067 48.439 3.368 48.9563 3.368C49.479 3.368 49.9563 3.49067 50.3883 3.736C50.8256 3.976 51.1696 4.312 51.4203 4.744C51.671 5.176 51.7963 5.664 51.7963 6.208C51.7963 6.752 51.671 7.24267 51.4203 7.68C51.1696 8.112 50.8256 8.45067 50.3883 8.696C49.9563 8.936 49.479 9.056 48.9563 9.056ZM48.9563 8.264C49.3243 8.264 49.6523 8.18133 49.9403 8.016C50.2283 7.84533 50.4523 7.60533 50.6123 7.296C50.7776 6.98133 50.8603 6.61867 50.8603 6.208C50.8603 5.79733 50.7776 5.43733 50.6123 5.128C50.4523 4.81867 50.2283 4.58133 49.9403 4.416C49.6523 4.25067 49.3243 4.168 48.9563 4.168C48.5883 4.168 48.2603 4.25067 47.9723 4.416C47.6843 4.58133 47.4576 4.81867 47.2923 5.128C47.1323 5.43733 47.0523 5.79733 47.0523 6.208C47.0523 6.61867 47.1323 6.98133 47.2923 7.296C47.4576 7.60533 47.6843 7.84533 47.9723 8.016C48.2603 8.18133 48.5883 8.264 48.9563 8.264ZM55.5818 9L54.3018 6.776H53.6058V9H52.6938V3.44H54.6138C55.0404 3.44 55.4004 3.51467 55.6938 3.664C55.9924 3.81333 56.2138 4.01333 56.3578 4.264C56.5071 4.51467 56.5818 4.79467 56.5818 5.104C56.5818 5.46667 56.4751 5.79733 56.2618 6.096C56.0538 6.38933 55.7311 6.58933 55.2938 6.696L56.6698 9H55.5818ZM53.6058 6.048H54.6138C54.9551 6.048 55.2111 5.96267 55.3818 5.792C55.5578 5.62133 55.6458 5.392 55.6458 5.104C55.6458 4.816 55.5604 4.592 55.3898 4.432C55.2191 4.26667 54.9604 4.184 54.6138 4.184H53.6058V6.048ZM58.6604 3.44V9H57.7484V3.44H58.6604ZM63.4498 3.44V4.184H61.9698V9H61.0578V4.184H59.5698V3.44H63.4498ZM68.4934 3.44L66.6534 6.984V9H65.7414V6.984L63.8934 3.44H64.9094L66.1974 6.168L67.4854 3.44H68.4934Z" fill="#707070"/>
<circle cx="4.5" cy="5.5" r="4.5" fill="#63C05B"/>
</svg>
