<svg width="94" height="12" viewBox="0 0 94 12" fill="none" xmlns="http://www.w3.org/2000/svg">
<path d="M20.456 3.44V9H19.544V5.192L17.848 9H17.216L15.512 5.192V9H14.6V3.44H15.584L17.536 7.8L19.48 3.44H20.456ZM24.1907 9.056C23.6734 9.056 23.196 8.936 22.7587 8.696C22.3267 8.45067 21.9827 8.112 21.7267 7.68C21.476 7.24267 21.3507 6.752 21.3507 6.208C21.3507 5.664 21.476 5.176 21.7267 4.744C21.9827 4.312 22.3267 3.976 22.7587 3.736C23.196 3.49067 23.6734 3.368 24.1907 3.368C24.7134 3.368 25.1907 3.49067 25.6227 3.736C26.06 3.976 26.404 4.312 26.6547 4.744C26.9054 5.176 27.0307 5.664 27.0307 6.208C27.0307 6.752 26.9054 7.24267 26.6547 7.68C26.404 8.112 26.06 8.45067 25.6227 8.696C25.1907 8.936 24.7134 9.056 24.1907 9.056ZM24.1907 8.264C24.5587 8.264 24.8867 8.18133 25.1747 8.016C25.4627 7.84533 25.6867 7.60533 25.8467 7.296C26.012 6.98133 26.0947 6.61867 26.0947 6.208C26.0947 5.79733 26.012 5.43733 25.8467 5.128C25.6867 4.81867 25.4627 4.58133 25.1747 4.416C24.8867 4.25067 24.5587 4.168 24.1907 4.168C23.8227 4.168 23.4947 4.25067 23.2067 4.416C22.9187 4.58133 22.692 4.81867 22.5267 5.128C22.3667 5.43733 22.2867 5.79733 22.2867 6.208C22.2867 6.61867 22.3667 6.98133 22.5267 7.296C22.692 7.60533 22.9187 7.84533 23.2067 8.016C23.4947 8.18133 23.8227 8.264 24.1907 8.264ZM29.7441 3.44C30.3361 3.44 30.8535 3.55467 31.2961 3.784C31.7441 4.008 32.0881 4.33333 32.3281 4.76C32.5735 5.18133 32.6961 5.67467 32.6961 6.24C32.6961 6.80533 32.5735 7.296 32.3281 7.712C32.0881 8.128 31.7441 8.448 31.2961 8.672C30.8535 8.89067 30.3361 9 29.7441 9H27.9281V3.44H29.7441ZM29.7441 8.256C30.3948 8.256 30.8935 8.08 31.2401 7.728C31.5868 7.376 31.7601 6.88 31.7601 6.24C31.7601 5.59467 31.5868 5.09067 31.2401 4.728C30.8935 4.36533 30.3948 4.184 29.7441 4.184H28.8401V8.256H29.7441ZM34.512 4.176V5.808H36.432V6.552H34.512V8.256H36.672V9H33.6V3.432H36.672V4.176H34.512ZM40.6833 9L39.4033 6.776H38.7073V9H37.7953V3.44H39.7153C40.142 3.44 40.502 3.51467 40.7953 3.664C41.094 3.81333 41.3153 4.01333 41.4593 4.264C41.6086 4.51467 41.6833 4.79467 41.6833 5.104C41.6833 5.46667 41.5766 5.79733 41.3633 6.096C41.1553 6.38933 40.8326 6.58933 40.3953 6.696L41.7713 9H40.6833ZM38.7073 6.048H39.7153C40.0566 6.048 40.3126 5.96267 40.4833 5.792C40.6593 5.62133 40.7473 5.392 40.7473 5.104C40.7473 4.816 40.662 4.592 40.4913 4.432C40.3206 4.26667 40.062 4.184 39.7153 4.184H38.7073V6.048ZM46.202 7.864H43.874L43.474 9H42.522L44.514 3.432H45.57L47.562 9H46.602L46.202 7.864ZM45.946 7.12L45.042 4.536L44.13 7.12H45.946ZM52.0201 3.44V4.184H50.5401V9H49.6281V4.184H48.1401V3.44H52.0201ZM53.8558 4.176V5.808H55.7758V6.552H53.8558V8.256H56.0158V9H52.9438V3.432H56.0158V4.176H53.8558ZM63.1052 5.096C63.1052 5.37867 63.0385 5.64533 62.9052 5.896C62.7719 6.14667 62.5585 6.352 62.2652 6.512C61.9719 6.66667 61.5959 6.744 61.1372 6.744H60.1292V9H59.2172V3.44H61.1372C61.5639 3.44 61.9239 3.51467 62.2172 3.664C62.5159 3.808 62.7372 4.00533 62.8812 4.256C63.0305 4.50667 63.1052 4.78667 63.1052 5.096ZM61.1372 6C61.4839 6 61.7425 5.92267 61.9132 5.768C62.0839 5.608 62.1692 5.384 62.1692 5.096C62.1692 4.488 61.8252 4.184 61.1372 4.184H60.1292V6H61.1372ZM66.863 9L65.583 6.776H64.887V9H63.975V3.44H65.895C66.3217 3.44 66.6817 3.51467 66.975 3.664C67.2737 3.81333 67.495 4.01333 67.639 4.264C67.7883 4.51467 67.863 4.79467 67.863 5.104C67.863 5.46667 67.7563 5.79733 67.543 6.096C67.335 6.38933 67.0123 6.58933 66.575 6.696L67.951 9H66.863ZM64.887 6.048H65.895C66.2363 6.048 66.4923 5.96267 66.663 5.792C66.839 5.62133 66.927 5.392 66.927 5.104C66.927 4.816 66.8417 4.592 66.671 4.432C66.5003 4.26667 66.2417 4.184 65.895 4.184H64.887V6.048ZM69.9417 3.44V9H69.0297V3.44H69.9417ZM73.6751 9.056C73.1577 9.056 72.6804 8.936 72.2431 8.696C71.8111 8.45067 71.4671 8.112 71.2111 7.68C70.9604 7.24267 70.8351 6.752 70.8351 6.208C70.8351 5.664 70.9604 5.176 71.2111 4.744C71.4671 4.312 71.8111 3.976 72.2431 3.736C72.6804 3.49067 73.1577 3.368 73.6751 3.368C74.1977 3.368 74.6751 3.49067 75.1071 3.736C75.5444 3.976 75.8884 4.312 76.1391 4.744C76.3897 5.176 76.5151 5.664 76.5151 6.208C76.5151 6.752 76.3897 7.24267 76.1391 7.68C75.8884 8.112 75.5444 8.45067 75.1071 8.696C74.6751 8.936 74.1977 9.056 73.6751 9.056ZM73.6751 8.264C74.0431 8.264 74.3711 8.18133 74.6591 8.016C74.9471 7.84533 75.1711 7.60533 75.3311 7.296C75.4964 6.98133 75.5791 6.61867 75.5791 6.208C75.5791 5.79733 75.4964 5.43733 75.3311 5.128C75.1711 4.81867 74.9471 4.58133 74.6591 4.416C74.3711 4.25067 74.0431 4.168 73.6751 4.168C73.3071 4.168 72.9791 4.25067 72.6911 4.416C72.4031 4.58133 72.1764 4.81867 72.0111 5.128C71.8511 5.43733 71.7711 5.79733 71.7711 6.208C71.7711 6.61867 71.8511 6.98133 72.0111 7.296C72.1764 7.60533 72.4031 7.84533 72.6911 8.016C72.9791 8.18133 73.3071 8.264 73.6751 8.264ZM80.3005 9L79.0205 6.776H78.3245V9H77.4125V3.44H79.3325C79.7592 3.44 80.1192 3.51467 80.4125 3.664C80.7112 3.81333 80.9325 4.01333 81.0765 4.264C81.2258 4.51467 81.3005 4.79467 81.3005 5.104C81.3005 5.46667 81.1938 5.79733 80.9805 6.096C80.7725 6.38933 80.4498 6.58933 80.0125 6.696L81.3885 9H80.3005ZM78.3245 6.048H79.3325C79.6738 6.048 79.9298 5.96267 80.1005 5.792C80.2765 5.62133 80.3645 5.392 80.3645 5.104C80.3645 4.816 80.2792 4.592 80.1085 4.432C79.9378 4.26667 79.6792 4.184 79.3325 4.184H78.3245V6.048ZM83.3792 3.44V9H82.4672V3.44H83.3792ZM88.1686 3.44V4.184H86.6886V9H85.7766V4.184H84.2886V3.44H88.1686ZM93.2122 3.44L91.3722 6.984V9H90.4602V6.984L88.6122 3.44H89.6282L90.9162 6.168L92.2042 3.44H93.2122Z" fill="#707070"/>
<circle cx="4.5" cy="5.5" r="4.5" fill="#18B0FF"/>
</svg>
